<svg width="24" height="20" viewBox="0 0 24 20" fill="none" xmlns="http://www.w3.org/2000/svg">
<g clip-path="url(#clip0_11_127)">
<path d="M19.023 16.4639C10.7681 20.3925 5.64513 17.1056 2.36569 15.1091C2.16274 14.9834 1.81787 15.1386 2.11715 15.4823C3.2097 16.807 6.79021 20 11.4638 20C16.1373 20 18.9229 17.4482 19.2708 17.003C19.6165 16.5616 19.3723 16.3181 19.0229 16.4639H19.023ZM21.3414 15.1835C21.1197 14.8949 19.9935 14.841 19.2846 14.9281C18.5747 15.0127 17.5092 15.4466 17.6018 15.707C17.6494 15.8046 17.7464 15.7609 18.2341 15.717C18.7231 15.6682 20.093 15.4953 20.3785 15.8685C20.6653 16.2442 19.9416 18.0341 19.8094 18.3228C19.6816 18.6114 19.8581 18.6858 20.098 18.4936C20.3346 18.3014 20.7629 17.8036 21.0503 17.0994C21.3357 16.3912 21.5098 15.4033 21.3413 15.1835H21.3414Z" fill="#FF9900"/>
<path fill-rule="evenodd" clip-rule="evenodd" d="M13.4726 8.44756C13.4726 9.47836 13.4986 10.338 12.9776 11.2534C12.5571 11.9977 11.8909 12.4554 11.1467 12.4554C10.1307 12.4554 9.53904 11.6813 9.53904 10.5389C9.53904 8.28368 11.5597 7.87445 13.4726 7.87445V8.44756ZM16.1407 14.8968C15.9659 15.0531 15.7128 15.0643 15.5156 14.96C14.6373 14.2307 14.481 13.892 13.9973 13.1961C12.5459 14.6772 11.5188 15.12 9.63578 15.12C7.41039 15.12 5.67621 13.7468 5.67621 10.9967C5.67621 8.84954 6.84111 7.38699 8.49698 6.67251C9.93351 6.03977 11.9393 5.92819 13.4726 5.7533V5.41087C13.4726 4.78188 13.5209 4.03764 13.1525 3.49438C12.8287 3.00684 12.2109 2.80593 11.6676 2.80593C10.6592 2.80593 9.75854 3.32316 9.53904 4.39491C9.49434 4.63318 9.31945 4.86761 9.08135 4.87871L6.51353 4.60341C6.29769 4.55495 6.05959 4.38007 6.11913 4.04881C6.71076 0.937892 9.52036 0 12.036 0C13.3236 0 15.0056 0.342431 16.0217 1.31744C17.3093 2.51937 17.1865 4.12329 17.1865 5.86864V9.99192C17.1865 11.2311 17.7 11.7745 18.1838 12.4443C18.3549 12.6825 18.3922 12.9691 18.1763 13.1476C17.6367 13.5979 16.6766 14.4353 16.1482 14.9042L16.1407 14.8967" fill="white"/>
<path d="M19.023 16.4639C10.7681 20.3925 5.64513 17.1056 2.36569 15.1091C2.16274 14.9834 1.81787 15.1386 2.11715 15.4823C3.2097 16.807 6.79021 20 11.4638 20C16.1373 20 18.9229 17.4482 19.2708 17.003C19.6165 16.5616 19.3723 16.3181 19.0229 16.4639H19.023ZM21.3414 15.1835C21.1197 14.8949 19.9935 14.841 19.2846 14.9281C18.5747 15.0127 17.5092 15.4466 17.6018 15.707C17.6494 15.8046 17.7464 15.7609 18.2341 15.717C18.7231 15.6682 20.093 15.4953 20.3785 15.8685C20.6653 16.2442 19.9416 18.0341 19.8094 18.3228C19.6816 18.6114 19.8581 18.6858 20.098 18.4936C20.3346 18.3014 20.7629 17.8036 21.0503 17.0994C21.3357 16.3912 21.5098 15.4033 21.3413 15.1835H21.3414Z" fill="#FF9900"/>
<path fill-rule="evenodd" clip-rule="evenodd" d="M13.4726 8.44756C13.4726 9.47836 13.4986 10.338 12.9776 11.2534C12.5571 11.9977 11.8909 12.4554 11.1467 12.4554C10.1307 12.4554 9.53904 11.6813 9.53904 10.5389C9.53904 8.28368 11.5597 7.87445 13.4726 7.87445V8.44756ZM16.1407 14.8968C15.9659 15.0531 15.7128 15.0643 15.5156 14.96C14.6373 14.2307 14.481 13.892 13.9973 13.1961C12.5459 14.6772 11.5188 15.12 9.63578 15.12C7.41039 15.12 5.67621 13.7468 5.67621 10.9967C5.67621 8.84954 6.84111 7.38699 8.49698 6.67251C9.93351 6.03977 11.9393 5.92819 13.4726 5.7533V5.41087C13.4726 4.78188 13.5209 4.03764 13.1525 3.49438C12.8287 3.00684 12.2109 2.80593 11.6676 2.80593C10.6592 2.80593 9.75854 3.32316 9.53904 4.39491C9.49434 4.63318 9.31945 4.86761 9.08135 4.87871L6.51353 4.60341C6.29769 4.55495 6.05959 4.38007 6.11913 4.04881C6.71076 0.937892 9.52036 0 12.036 0C13.3236 0 15.0056 0.342431 16.0217 1.31744C17.3093 2.51937 17.1865 4.12329 17.1865 5.86864V9.99192C17.1865 11.2311 17.7 11.7745 18.1838 12.4443C18.3549 12.6825 18.3922 12.9691 18.1763 13.1476C17.6367 13.5979 16.6766 14.4353 16.1482 14.9042L16.1407 14.8967" fill="white"/>
</g>
<defs>
<clipPath id="clip0_11_127">
<rect width="19.4075" height="20" fill="white" transform="translate(2)"/>
</clipPath>
</defs>
</svg>
