<svg width="20" height="20" viewBox="0 0 20 20" fill="none" xmlns="http://www.w3.org/2000/svg">
<path d="M17.7636 6.81868C17.6476 6.90869 15.5994 8.06281 15.5994 10.6291C15.5994 13.5974 18.2056 14.6475 18.2836 14.6735C18.2716 14.7375 17.8696 16.1116 16.9095 17.5118C16.0534 18.7439 15.1593 19.974 13.7992 19.974C12.439 19.974 12.089 19.1839 10.5189 19.1839C8.94869 19.1839 8.44464 20 7.20052 20C5.9564 20 5.08831 18.8599 4.09021 17.4597C2.93409 15.8156 2 13.2613 2 10.8371C2 6.94869 4.52825 4.88649 7.0165 4.88649C8.33863 4.88649 9.44074 5.75458 10.2708 5.75458C11.1009 5.75458 12.293 4.83448 13.7972 4.83448C14.3672 4.83448 16.4154 4.88649 17.7636 6.81868ZM13.0831 3.18832C13.7052 2.45024 14.1452 1.42614 14.1452 0.40204C14.1452 0.260026 14.1332 0.116012 14.1072 0C13.0951 0.0380038 11.891 0.674067 11.1649 1.51615C10.5949 2.16422 10.0628 3.18832 10.0628 4.22642C10.0628 4.38244 10.0888 4.53845 10.1008 4.58846C10.1648 4.60046 10.2688 4.61446 10.3728 4.61446C11.2809 4.61446 12.423 4.0064 13.0831 3.18832Z" fill="white"/>
</svg>
