<svg width="24" height="20" viewBox="0 0 24 20" fill="none" xmlns="http://www.w3.org/2000/svg">
<g clip-path="url(#clip0_11_104)">
<path d="M22.1 10.2273C22.1 9.51818 22.0364 8.83636 21.9182 8.18182H12.5V12.0545H17.8818C17.6455 13.3 16.9364 14.3545 15.8727 15.0636V17.5818H19.1182C21.0091 15.8364 22.1 13.2727 22.1 10.2273Z" fill="#4285F4"/>
<path d="M12.5 20C15.2 20 17.4636 19.1091 19.1182 17.5818L15.8727 15.0636C14.9818 15.6636 13.8455 16.0273 12.5 16.0273C9.9 16.0273 7.69091 14.2727 6.9 11.9091H3.57272V14.4909C5.21818 17.7545 8.59091 20 12.5 20Z" fill="#34A853"/>
<path d="M6.9 11.9C6.7 11.3 6.58182 10.6636 6.58182 10C6.58182 9.33636 6.7 8.7 6.9 8.1V5.51818H3.57273C2.89091 6.86364 2.5 8.38182 2.5 10C2.5 11.6182 2.89091 13.1364 3.57273 14.4818L6.16364 12.4636L6.9 11.9Z" fill="#FBBC05"/>
<path d="M12.5 3.98182C13.9727 3.98182 15.2818 4.49091 16.3273 5.47273L19.1909 2.60909C17.4545 0.990909 15.2 0 12.5 0C8.59091 0 5.21818 2.24546 3.57272 5.51818L6.9 8.1C7.69091 5.73636 9.9 3.98182 12.5 3.98182Z" fill="#EA4335"/>
</g>
<defs>
<clipPath id="clip0_11_104">
<rect width="20" height="20" fill="white" transform="translate(2.5)"/>
</clipPath>
</defs>
</svg>
