<svg width="20" height="18" viewBox="0 0 20 18" fill="none" xmlns="http://www.w3.org/2000/svg">
<g clip-path="url(#clip0_11_56)">
<path d="M2.16024 10.7606C2.16024 11.5243 2.32786 12.1106 2.54695 12.4653C2.83419 12.9299 3.26262 13.1267 3.6994 13.1267C4.26276 13.1267 4.77813 12.9869 5.77132 11.6133C6.56698 10.5123 7.50452 8.96689 8.13535 7.99805L9.20364 6.35666C9.94575 5.21672 10.8047 3.94951 11.7895 3.09056C12.5935 2.38948 13.4608 2 14.3337 2C15.7991 2 17.195 2.84921 18.2633 4.44193C19.4325 6.18626 20 8.38336 20 10.6507C20 11.9986 19.7343 12.989 19.2822 13.7715C18.8455 14.5282 17.9942 15.2842 16.5621 15.2842V13.1267C17.7883 13.1267 18.0943 12 18.0943 10.7105C18.0943 8.873 17.6659 6.83377 16.7221 5.37669C16.0523 4.34316 15.1843 3.71164 14.2294 3.71164C13.1965 3.71164 12.3654 4.49061 11.4314 5.87954C10.9348 6.61747 10.425 7.51676 9.85255 8.53151L9.22242 9.6478C7.9566 11.8922 7.63597 12.4034 7.00306 13.247C5.89373 14.7243 4.94645 15.2842 3.6994 15.2842C2.22006 15.2842 1.2846 14.6436 0.705244 13.6783C0.232299 12.8916 0 11.8595 0 10.6834L2.16024 10.7606Z" fill="#0081FB"/>
<path d="M1.7033 4.59424C2.6937 3.0676 4.12297 2 5.76228 2C6.71164 2 7.65545 2.28098 8.64098 3.08569C9.71902 3.9655 10.868 5.41424 12.3014 7.80192L12.8154 8.65878C14.0562 10.7258 14.7621 11.7893 15.1753 12.2907C15.7066 12.9348 16.0787 13.1267 16.5621 13.1267C17.7883 13.1267 18.0943 12 18.0943 10.7105L20 10.6507C20 11.9986 19.7343 12.989 19.2822 13.7715C18.8455 14.5282 17.9942 15.2842 16.5621 15.2842C15.6719 15.2842 14.8832 15.0908 14.011 14.268C13.3405 13.6365 12.5567 12.5147 11.9537 11.5062L10.16 8.50995C9.25998 7.00626 8.43441 5.8851 7.9566 5.37738C7.44262 4.83141 6.78189 4.17207 5.7275 4.17207C4.87411 4.17207 4.14939 4.7709 3.54291 5.68688L1.7033 4.59424Z" fill="url(#paint0_linear_11_56)"/>
<path d="M5.7275 4.17207C4.87411 4.17207 4.14939 4.7709 3.54291 5.68688C2.68535 6.98122 2.16024 8.90917 2.16024 10.7606C2.16024 11.5243 2.32786 12.1106 2.54695 12.4653L0.705244 13.6783C0.232299 12.8916 0 11.8595 0 10.6834C0 8.54472 0.587008 6.31562 1.7033 4.59424C2.6937 3.0676 4.12297 2 5.76228 2L5.7275 4.17207Z" fill="url(#paint1_linear_11_56)"/>
</g>
<defs>
<linearGradient id="paint0_linear_11_56" x1="4.33579" y1="8.29782" x2="18.1068" y2="8.99332" gradientUnits="userSpaceOnUse">
<stop stop-color="#0064E1"/>
<stop offset="0.4" stop-color="#0064E1"/>
<stop offset="0.83" stop-color="#0073EE"/>
<stop offset="1" stop-color="#0082FB"/>
</linearGradient>
<linearGradient id="paint1_linear_11_56" x1="2.88079" y1="11.6675" x2="2.88079" y2="6.59035" gradientUnits="userSpaceOnUse">
<stop stop-color="#0082FB"/>
<stop offset="1" stop-color="#0064E0"/>
</linearGradient>
<clipPath id="clip0_11_56">
<rect width="20" height="13.2842" fill="white" transform="translate(0 2)"/>
</clipPath>
</defs>
</svg>
