<svg width="24" height="20" viewBox="0 0 24 20" fill="none" xmlns="http://www.w3.org/2000/svg">
<g clip-path="url(#clip0_11_150)">
<path d="M11.5444 20L14.3547 4.19644C17.0335 4.19644 17.8778 4.4903 17.9998 5.68872C17.9998 5.68872 19.7962 5.01862 20.7032 3.65782C17.1665 2.01901 13.6133 1.94535 13.6133 1.94535L11.5396 4.4705H11.5444L9.4707 1.94456C9.4707 1.94456 5.91743 2.01822 2.38159 3.65703C3.28694 5.01782 5.08417 5.68792 5.08417 5.68792C5.20694 4.48872 6.0505 4.19565 8.7111 4.19327L11.5436 19.9992" fill="#E82127"/>
<path d="M11.5428 1.21663C14.4014 1.19446 17.6735 1.65861 21.0232 3.11842C21.4707 2.31287 21.5863 1.95644 21.5863 1.95644C17.9246 0.508515 14.4956 0.0126733 11.5428 0C8.5899 0.0126733 5.16099 0.508515 1.5 1.95723C1.5 1.95723 1.66317 2.39604 2.06238 3.11921C5.41129 1.65861 8.68416 1.19446 11.5428 1.21663Z" fill="#E82127"/>
</g>
<defs>
<clipPath id="clip0_11_150">
<rect width="20.0855" height="20" fill="white" transform="translate(1.5)"/>
</clipPath>
</defs>
</svg>
